<svg width="400" height="400" viewBox="0 0 400 400" fill="none" xmlns="http://www.w3.org/2000/svg">
<rect width="400" height="400" rx="24" fill="#FFA500"/>
<g clip-path="url(#clip0_223_20)">
<path fill-rule="evenodd" clip-rule="evenodd" d="M97.373 151.068H303.205C315.561 151.068 325.579 141.051 325.579 128.695C325.579 116.339 315.562 106.322 303.205 106.322H97.373C85.017 106.323 75 116.339 75 128.696C75 141.052 85.017 151.068 97.373 151.068ZM303.205 177.916H97.373C85.017 177.916 75 187.933 75 200.289C75 212.646 85.017 222.662 97.373 222.662H303.205C315.561 222.662 325.579 212.646 325.579 200.289C325.579 187.933 315.561 177.916 303.205 177.916ZM303.205 249.51H97.373C85.017 249.51 75 259.526 75 271.883C75 284.239 85.017 294.256 97.373 294.256H303.205C315.561 294.256 325.579 284.239 325.579 271.883C325.579 259.526 315.561 249.51 303.205 249.51Z" fill="black"/>
</g>
<defs>
<clipPath id="clip0_223_20">
<rect width="250.579" height="250.579" fill="white" transform="translate(75 75)"/>
</clipPath>
</defs>
</svg>
