<svg width="380" height="75" viewBox="0 0 380 75" fill="none" xmlns="http://www.w3.org/2000/svg">
<path d="M24.0592 4.41016V30.3902H17.6527V11.2244H6.40648V30.3902H0V4.41016H24.0592Z" fill="#001B71"/>
<path d="M56.231 11.8266C56.95 13.5114 57.3148 15.3571 57.3148 17.3746C57.3148 19.392 56.95 21.2378 56.231 22.9226C55.512 24.6074 54.5462 26.0453 53.3336 27.2579C52.121 28.4706 50.7259 29.4149 49.1484 30.0802C47.571 30.7563 45.9184 31.089 44.2014 31.089C42.2805 31.089 40.6494 30.7563 39.2865 30.1017C37.9237 29.4471 37.0223 28.6315 36.593 27.655V41.1226H30.1865V4.41138H36.3891V7.13709C36.8291 6.16055 37.7412 5.34499 39.1363 4.69039C40.5313 4.03579 42.1839 3.70312 44.1048 3.70312C45.854 3.70312 47.528 4.03579 49.127 4.69039C50.7259 5.34499 52.1317 6.2786 53.3336 7.49121C54.5462 8.70383 55.512 10.1525 56.231 11.8266ZM50.3074 20.1754C50.6723 19.3169 50.8654 18.3833 50.8654 17.3746C50.8654 16.3659 50.683 15.443 50.3074 14.5952C49.9318 13.7582 49.4274 13.0285 48.7728 12.4275C48.1182 11.8266 47.3241 11.3544 46.4013 11.011C45.4784 10.6784 44.4589 10.5067 43.3536 10.5067C41.744 10.5067 40.306 10.8393 39.0719 11.4939C37.8271 12.1485 37.0008 12.9641 36.6037 13.9406V20.8515C37.0115 21.828 37.8271 22.6436 39.0719 23.2982C40.3167 23.9528 41.744 24.2854 43.3536 24.2854C44.4589 24.2854 45.4784 24.1137 46.4013 23.7811C47.3241 23.4484 48.1182 22.9762 48.7728 22.3646C49.4274 21.7636 49.9425 21.0339 50.3074 20.1754Z" fill="#001B71"/>
<path d="M68.1644 4.41016V20.0025L79.915 4.41016H86.3215V30.3902H80.0116V14.8086L68.261 30.3902H61.8545V4.41016H68.1644Z" fill="#001B71"/>
<path d="M118.3 17.4282C118.3 19.4135 117.924 21.2378 117.195 22.9011C116.454 24.5644 115.456 26.0024 114.19 27.215C112.924 28.4276 111.475 29.372 109.822 30.0588C108.17 30.7456 106.431 31.089 104.575 31.089C102.729 31.089 100.98 30.7456 99.3272 30.0588C97.6746 29.372 96.2259 28.4169 94.9596 27.215C93.7041 26.0024 92.6954 24.5644 91.9549 22.9011C91.2145 21.2378 90.8496 19.4135 90.8496 17.4282C90.8496 15.4752 91.2252 13.6616 91.9549 11.9768C92.6954 10.292 93.6934 8.84334 94.9596 7.60926C96.2259 6.38591 97.6746 5.42011 99.3272 4.73331C100.969 4.04652 102.718 3.70312 104.575 3.70312C106.42 3.70312 108.17 4.04652 109.822 4.73331C111.475 5.42011 112.924 6.38591 114.19 7.60926C115.445 8.8326 116.454 10.292 117.195 11.9768C117.924 13.6616 118.3 15.4752 118.3 17.4282ZM97.8678 14.6274C97.4922 15.4859 97.3097 16.4195 97.3097 17.4282C97.3097 18.437 97.4922 19.3598 97.8678 20.2076C98.2326 21.0446 98.7477 21.7743 99.4023 22.3753C100.057 22.9762 100.83 23.4484 101.72 23.7918C102.611 24.1245 103.555 24.2962 104.564 24.2962C105.573 24.2962 106.517 24.1245 107.386 23.7918C108.255 23.4591 109.028 22.987 109.683 22.3753C110.337 21.7743 110.863 21.0446 111.249 20.2076C111.636 19.3706 111.829 18.437 111.829 17.4282C111.829 16.4195 111.636 15.4859 111.249 14.6274C110.863 13.7689 110.337 13.0392 109.683 12.4383C109.028 11.8373 108.266 11.3652 107.386 11.0218C106.506 10.6891 105.573 10.5174 104.564 10.5174C103.555 10.5174 102.6 10.6891 101.72 11.0218C100.83 11.3544 100.057 11.8266 99.4023 12.4383C98.7477 13.0392 98.2326 13.7689 97.8678 14.6274Z" fill="#001B71"/>
<path d="M148.777 11.8266C149.496 13.5114 149.861 15.3571 149.861 17.3746C149.861 19.392 149.496 21.2378 148.777 22.9226C148.058 24.6074 147.092 26.0453 145.879 27.2579C144.667 28.4706 143.272 29.4149 141.694 30.0802C140.117 30.7563 138.464 31.089 136.747 31.089C134.826 31.089 133.195 30.7563 131.832 30.1017C130.47 29.4471 129.568 28.6315 129.139 27.655V41.1226H122.732V4.41138H128.935V7.13709C129.375 6.16055 130.287 5.34499 131.682 4.69039C133.077 4.03579 134.73 3.70312 136.651 3.70312C138.4 3.70312 140.074 4.03579 141.673 4.69039C143.272 5.34499 144.678 6.2786 145.879 7.49121C147.081 8.70383 148.047 10.1525 148.777 11.8266ZM142.843 20.1754C143.207 19.3169 143.401 18.3833 143.401 17.3746C143.401 16.3659 143.218 15.443 142.843 14.5952C142.467 13.7582 141.963 13.0285 141.308 12.4275C140.653 11.8266 139.859 11.3544 138.936 11.011C138.014 10.6784 136.994 10.5067 135.889 10.5067C134.279 10.5067 132.841 10.8393 131.607 11.4939C130.362 12.1485 129.536 12.9641 129.139 13.9406V20.8515C129.547 21.828 130.362 22.6436 131.607 23.2982C132.852 23.9528 134.279 24.2854 135.889 24.2854C136.994 24.2854 138.014 24.1137 138.936 23.7811C139.859 23.4484 140.653 22.9762 141.308 22.3646C141.963 21.7529 142.478 21.0339 142.843 20.1754Z" fill="#001B71"/>
<path d="M160.688 4.41016V20.0025L172.438 4.41016H178.845V30.3902H172.535V14.8086L160.784 30.3902H154.378V4.41016H160.688Z" fill="#001B71"/>
<path d="M205.555 11.2244H197.528V30.3902H191.122V11.2244H183.105V4.41016H205.555V11.2244Z" fill="#001B71"/>
<path d="M222.553 24.6386C224.162 24.6386 225.718 24.3489 227.189 23.7586C228.67 23.1684 229.775 22.3851 230.515 21.4085L232.479 26.3556C231.674 27.697 230.387 28.8237 228.616 29.7359C226.845 30.648 224.753 31.0987 222.338 31.0987C220.353 31.0987 218.518 30.7768 216.812 30.1437C215.116 29.4998 213.646 28.5984 212.401 27.418C211.156 26.2375 210.18 24.8103 209.472 23.1362C208.763 21.4514 208.409 19.552 208.409 17.438C208.409 15.5922 208.72 13.8431 209.343 12.1905C209.965 10.5486 210.856 9.08919 212.015 7.82291C213.174 6.56737 214.569 5.55864 216.2 4.8182C217.831 4.07775 219.666 3.71289 221.726 3.71289C223.647 3.71289 225.386 4.08848 226.942 4.85039C228.509 5.60157 229.839 6.6103 230.923 7.87657C232.018 9.14284 232.865 10.5915 233.466 12.2441C234.067 13.8967 234.378 15.6244 234.378 17.438C234.378 17.8136 234.368 18.1999 234.357 18.6184C234.336 19.0369 234.293 19.4018 234.228 19.7023H214.966C215.266 21.4193 216.103 22.6748 217.488 23.4582C218.883 24.2415 220.568 24.6386 222.553 24.6386ZM227.854 14.4548C227.65 13.0812 226.974 12.0295 225.837 11.2998C224.688 10.5808 223.325 10.216 221.748 10.216C220.17 10.216 218.754 10.5808 217.509 11.2998C216.264 12.0295 215.513 13.0704 215.245 14.4548H227.854Z" fill="#001B71"/>
<path d="M259.737 11.2244H251.71V30.3902H245.314V11.2244H237.287V4.41016H259.737V11.2244Z" fill="#001B71"/>
<path d="M272.228 9.73312C271.594 9.73312 271.015 9.8297 270.489 10.0229C269.953 10.216 269.47 10.4736 269.04 10.7848C268.611 11.096 268.214 11.4608 267.86 11.8686C267.506 12.2764 267.205 12.7164 266.937 13.1778L264.651 9.26095C264.845 8.50977 265.177 7.80152 265.649 7.13619C266.122 6.47086 266.701 5.89138 267.388 5.39774C268.075 4.90411 268.869 4.50706 269.77 4.21732C270.661 3.92758 271.637 3.77734 272.678 3.77734C274.03 3.77734 275.232 3.98124 276.273 4.38902C277.314 4.7968 278.183 5.36555 278.892 6.09527C279.589 6.82498 280.126 7.67274 280.491 8.63855C280.855 9.60435 281.038 10.6453 281.038 11.7613C281.038 12.7056 280.93 13.5749 280.716 14.3582C280.501 15.1416 280.179 15.9143 279.75 16.6654C279.321 17.4166 278.795 18.1785 278.173 18.9512C277.539 19.7238 276.82 20.5716 275.994 21.4944L273.387 24.4348H281.553V30.3905H264.855V25.7762L272.292 17.6849C272.818 17.1054 273.279 16.601 273.666 16.1611C274.052 15.7211 274.374 15.3133 274.631 14.9055C274.889 14.4977 275.082 14.1222 275.211 13.7466C275.34 13.371 275.415 12.9525 275.415 12.491C275.415 11.7184 275.125 11.0638 274.556 10.5272C273.966 10.0014 273.204 9.73312 272.228 9.73312Z" fill="#EA0029"/>
<path d="M292.595 4.77534C294.258 4.11001 296.007 3.77734 297.864 3.77734C299.71 3.77734 301.459 4.11001 303.133 4.77534C304.796 5.44067 306.256 6.37428 307.5 7.57616C308.756 8.77805 309.743 10.216 310.473 11.8901C311.203 13.5641 311.567 15.3992 311.567 17.3951C311.567 19.4126 311.203 21.2476 310.473 22.9109C309.743 24.5743 308.756 26.0122 307.5 27.2141C306.245 28.416 304.796 29.3496 303.133 30.015C301.469 30.6803 299.71 31.0129 297.864 31.0129C296.018 31.0129 294.258 30.6803 292.595 30.015C290.932 29.3496 289.472 28.416 288.227 27.2141C286.972 26.0122 285.984 24.5743 285.255 22.9109C284.525 21.2476 284.16 19.4126 284.16 17.3951C284.16 15.3992 284.525 13.5641 285.255 11.8901C285.984 10.216 286.972 8.77805 288.227 7.57616C289.472 6.38501 290.932 5.4514 292.595 4.77534ZM297.864 25.0572C298.98 25.0572 300.032 24.8747 301.019 24.4884C302.006 24.1128 302.854 23.587 303.573 22.9217C304.292 22.2563 304.85 21.4515 305.268 20.5179C305.676 19.5843 305.891 18.5434 305.891 17.4059C305.891 16.2898 305.687 15.2597 305.268 14.3046C304.85 13.3602 304.292 12.5554 303.573 11.8793C302.854 11.214 302.006 10.6882 301.019 10.3126C300.032 9.93701 298.98 9.74385 297.864 9.74385C296.726 9.74385 295.664 9.93701 294.698 10.3126C293.732 10.6882 292.885 11.214 292.166 11.8793C291.447 12.5447 290.878 13.3602 290.47 14.3046C290.062 15.2489 289.848 16.2898 289.848 17.4059C289.848 18.5541 290.052 19.5843 290.47 20.5179C290.878 21.4515 291.447 22.2563 292.166 22.9217C292.885 23.587 293.722 24.1128 294.698 24.4884C295.664 24.864 296.716 25.0572 297.864 25.0572Z" fill="#EA0029"/>
<path d="M320.657 25.0783C321.816 25.0783 322.76 24.7993 323.469 24.2413C324.188 23.6833 324.542 22.9321 324.542 21.9877C324.542 21.14 324.22 20.4639 323.576 19.9703C322.932 19.4767 322.073 19.2298 320.979 19.2298C320.228 19.2298 319.584 19.3157 319.037 19.4874C318.489 19.6591 318.082 19.8415 317.824 20.0347L316.912 15.9676L321.376 10.3767H314.186V4.41016H328.748V8.65968L324.316 14.1004C324.949 14.2506 325.604 14.4974 326.291 14.8408C326.978 15.1949 327.611 15.6778 328.201 16.2895C328.78 16.9119 329.263 17.6846 329.639 18.6289C330.015 19.5732 330.197 20.7107 330.197 22.0414C330.197 23.2755 329.972 24.4344 329.521 25.529C329.07 26.6129 328.437 27.5679 327.6 28.3835C326.763 29.1991 325.765 29.8322 324.585 30.3044C323.404 30.7765 322.095 31.0126 320.646 31.0126C319.552 31.0126 318.575 30.8946 317.706 30.6478C316.837 30.401 316.075 30.0897 315.42 29.682C314.766 29.2849 314.218 28.8449 313.789 28.3513C313.349 27.8684 313.038 27.3748 312.845 26.8597L314.154 22.0629C314.851 22.9106 315.71 23.6189 316.729 24.1876C317.76 24.7886 319.069 25.0783 320.657 25.0783Z" fill="#EA0029"/>
<path d="M341.239 4.77534C342.903 4.11001 344.652 3.77734 346.508 3.77734C348.354 3.77734 350.103 4.11001 351.777 4.77534C353.441 5.44067 354.9 6.37428 356.145 7.57616C357.4 8.77805 358.388 10.216 359.117 11.8901C359.847 13.5641 360.212 15.3992 360.212 17.3951C360.212 19.4126 359.847 21.2476 359.117 22.9109C358.388 24.5743 357.4 26.0122 356.145 27.2141C354.889 28.416 353.441 29.3496 351.777 30.015C350.114 30.6803 348.365 31.0129 346.508 31.0129C344.663 31.0129 342.903 30.6803 341.239 30.015C339.576 29.3496 338.117 28.416 336.861 27.2141C335.606 26.0122 334.618 24.5743 333.889 22.9109C333.159 21.2476 332.794 19.4126 332.794 17.3951C332.794 15.3992 333.159 13.5641 333.889 11.8901C334.618 10.216 335.606 8.77805 336.861 7.57616C338.117 6.38501 339.576 5.4514 341.239 4.77534ZM346.508 25.0572C347.624 25.0572 348.676 24.8747 349.663 24.4884C350.651 24.1128 351.498 23.587 352.217 22.9217C352.936 22.2563 353.505 21.4515 353.913 20.5179C354.321 19.5843 354.535 18.5434 354.535 17.4059C354.535 16.2898 354.331 15.2597 353.913 14.3046C353.505 13.3602 352.936 12.5554 352.217 11.8793C351.498 11.214 350.651 10.6882 349.663 10.3126C348.676 9.93701 347.624 9.74385 346.508 9.74385C345.371 9.74385 344.308 9.93701 343.343 10.3126C342.366 10.6882 341.529 11.214 340.81 11.8793C340.091 12.5447 339.533 13.3602 339.115 14.3046C338.696 15.2489 338.492 16.2898 338.492 17.4059C338.492 18.5541 338.696 19.5843 339.115 20.5179C339.533 21.4515 340.091 22.2563 340.81 22.9217C341.529 23.587 342.366 24.1128 343.343 24.4884C344.308 24.864 345.36 25.0572 346.508 25.0572Z" fill="#EA0029"/>
<path d="M374.001 0H368.797L362.798 10.3877H367.992L374.001 0Z" fill="#EA0029"/>
<path d="M368.797 0H374.001L380 10.3877H374.806L368.797 0Z" fill="#EA0029"/>
<path d="M18.5222 56.4883V64.204L24.3384 56.4883H27.5149V69.3549H24.3921V61.6392L18.5651 69.3549H15.3994V56.4883H18.5222Z" fill="#EA0029"/>
<path d="M30.7877 65.9853C31.056 65.5346 31.3135 65.0303 31.5603 64.4615C31.8072 63.8928 32.0325 63.2704 32.2364 62.5728C32.4403 61.886 32.5905 61.1349 32.7086 60.3408C32.8266 59.5467 32.8803 58.6882 32.8803 57.7653V56.4883H42.1734V65.9746H43.9763V72.7674H40.9072V69.3442H32.5369V72.7674H29.4678V65.9746H30.7877V65.9853ZM38.997 65.9853V59.8686H35.724C35.5738 61.3173 35.3484 62.5299 35.048 63.5064C34.7475 64.483 34.4256 65.3093 34.0714 65.9853H38.997Z" fill="#EA0029"/>
<path d="M52.3141 66.5001C53.1082 66.5001 53.8808 66.3498 54.6105 66.0601C55.3403 65.7704 55.8875 65.384 56.2631 64.9011L57.2397 67.3478C56.8426 68.0132 56.1988 68.5712 55.3295 69.0219C54.4496 69.4726 53.4194 69.6979 52.2175 69.6979C51.2302 69.6979 50.3288 69.537 49.4811 69.2258C48.644 68.9146 47.9143 68.4639 47.2919 67.8737C46.6695 67.2834 46.1973 66.5859 45.8432 65.7489C45.4891 64.9226 45.3174 63.9783 45.3174 62.9266C45.3174 62.0145 45.4676 61.1452 45.7788 60.3297C46.09 59.5141 46.53 58.7951 47.0988 58.1727C47.6782 57.5503 48.365 57.0567 49.1699 56.6918C49.9747 56.327 50.8868 56.1445 51.9063 56.1445C52.8506 56.1445 53.7199 56.327 54.4925 56.7026C55.2651 57.0781 55.9197 57.5825 56.467 58.2049C57.0036 58.8273 57.4328 59.5463 57.7333 60.3619C58.0338 61.1774 58.184 62.0359 58.184 62.9373C58.184 63.1198 58.184 63.3129 58.1733 63.5275C58.1625 63.7314 58.1411 63.9139 58.1089 64.0641H48.5689C48.7191 64.9119 49.1377 65.5343 49.8137 65.9206C50.5005 66.3069 51.3268 66.5001 52.3141 66.5001ZM54.9325 61.4564C54.8359 60.7696 54.5032 60.2546 53.9345 59.9004C53.3657 59.5463 52.6897 59.3639 51.917 59.3639C51.1444 59.3639 50.4361 59.5463 49.8137 59.9004C49.2021 60.2546 48.8265 60.7804 48.687 61.4564H54.9325Z" fill="#EA0029"/>
<path d="M73.4545 60.158C73.8086 60.995 73.991 61.9071 73.991 62.9051C73.991 63.9031 73.8086 64.826 73.4545 65.6523C73.1003 66.4893 72.6174 67.1976 72.0165 67.7985C71.4156 68.3995 70.7288 68.8609 69.9454 69.1936C69.162 69.5263 68.3465 69.6979 67.4987 69.6979C66.5436 69.6979 65.7388 69.537 65.0627 69.215C64.3867 68.8931 63.9467 68.4853 63.7213 68.0024V74.6665H60.5449V56.4879H63.614V57.8401C63.8286 57.3572 64.2794 56.9494 64.9769 56.6274C65.6637 56.3055 66.49 56.1445 67.4343 56.1445C68.3035 56.1445 69.1298 56.3055 69.9239 56.6274C70.718 56.9494 71.4048 57.4108 72.0058 58.0117C72.6174 58.6127 73.0896 59.3317 73.4545 60.158ZM70.5141 64.2895C70.6966 63.8602 70.7932 63.3988 70.7932 62.9051C70.7932 62.4115 70.6966 61.9501 70.5141 61.5316C70.3317 61.113 70.0742 60.7589 69.7522 60.4584C69.4303 60.158 69.0332 59.9219 68.5825 59.7609C68.1211 59.6 67.6167 59.5141 67.0695 59.5141C66.2753 59.5141 65.5671 59.6751 64.9447 59.997C64.3223 60.3189 63.9145 60.7267 63.7213 61.2096V64.6329C63.9252 65.1158 64.333 65.5235 64.9447 65.8455C65.5564 66.1674 66.2646 66.3284 67.0695 66.3284C67.6167 66.3284 68.1211 66.2425 68.5825 66.0816C69.044 65.9206 69.4303 65.6845 69.7522 65.384C70.0849 65.0836 70.3317 64.7187 70.5141 64.2895Z" fill="#EA0029"/>
<path d="M76.1907 58.4098C76.4268 58.0449 76.7165 57.723 77.0814 57.4332C77.4355 57.1542 77.8326 56.9181 78.2725 56.725C78.7018 56.5318 79.1632 56.3923 79.6569 56.285C80.1505 56.1884 80.6441 56.1348 81.1378 56.1348C81.9855 56.1348 82.7582 56.2528 83.4449 56.4782C84.1317 56.7142 84.7327 57.0469 85.2263 57.4762C85.7199 57.9054 86.117 58.442 86.3853 59.0858C86.6643 59.7297 86.7931 60.4594 86.7931 61.275V69.3448H83.7239V68.218C83.4127 68.7009 82.9191 69.0658 82.2538 69.3126C81.5885 69.5594 80.9017 69.6882 80.2041 69.6882C79.5173 69.6882 78.8949 69.5916 78.3262 69.3877C77.7574 69.1838 77.2638 68.9048 76.8453 68.5507C76.4161 68.1966 76.0941 67.7566 75.858 67.2308C75.622 66.7049 75.5039 66.1147 75.5039 65.4708C75.5039 64.7841 75.6434 64.1831 75.9117 63.6573C76.1907 63.1315 76.5556 62.6915 77.0277 62.3374C77.4892 61.9832 78.0257 61.7042 78.6374 61.5218C79.2491 61.3394 79.8715 61.2428 80.5261 61.2428C81.3631 61.2428 82.0392 61.3394 82.565 61.5325C83.0908 61.7257 83.4449 61.9296 83.6274 62.1442V61.8115C83.6274 61.0604 83.3806 60.4594 82.8869 60.0087C82.3933 59.558 81.6743 59.3326 80.73 59.3326C79.9144 59.3326 79.174 59.4936 78.5194 59.8048C77.8648 60.116 77.3389 60.5238 76.9526 61.0067L76.1907 58.4098ZM83.6274 64.7304C83.4986 64.4943 83.1981 64.2904 82.7582 64.1187C82.3074 63.947 81.7923 63.8612 81.2129 63.8612C80.3758 63.8612 79.7534 63.99 79.3349 64.2582C78.9164 64.5265 78.7125 64.8699 78.7125 65.3099C78.7125 65.7391 78.9271 66.0933 79.3457 66.3508C79.7749 66.6083 80.3866 66.7371 81.1807 66.7371C81.7602 66.7371 82.2752 66.6298 82.726 66.4259C83.1767 66.222 83.4771 65.9645 83.6274 65.664V64.7304Z" fill="#EA0029"/>
<path d="M101.366 56.4883H104.436L106.453 69.3549H103.309L102.193 62.5621L99.188 69.3549H96.6447L93.6508 62.5621L92.5025 69.3549H89.2725L91.2685 56.4883H94.1229L97.7393 64.7083L101.366 56.4883Z" fill="#EA0029"/>
<path d="M112.151 56.4883V64.204L117.967 56.4883H121.144V69.3549H118.021V61.6392L112.205 69.3549H109.028V56.4883H112.151Z" fill="#EA0029"/>
<path d="M141.329 67.4015C140.942 68.0346 140.32 68.5712 139.451 69.0219C138.582 69.4726 137.573 69.6979 136.425 69.6979C135.523 69.6979 134.676 69.5263 133.86 69.1936C133.055 68.8609 132.336 68.3995 131.714 67.7985C131.091 67.1976 130.598 66.4786 130.222 65.6523C129.857 64.826 129.675 63.9031 129.675 62.9051C129.675 61.9071 129.857 60.9843 130.222 60.158C130.587 59.3209 131.081 58.6127 131.714 58.0117C132.347 57.4108 133.055 56.9494 133.86 56.6274C134.665 56.3055 135.523 56.1445 136.425 56.1445C137.573 56.1445 138.571 56.3699 139.408 56.8206C140.245 57.2713 140.857 57.8079 141.221 58.4195L140.32 61.0701C139.987 60.6731 139.515 60.3082 138.893 59.997C138.281 59.6858 137.573 59.5248 136.768 59.5248C135.598 59.5248 134.676 59.836 133.967 60.4584C133.27 61.0809 132.916 61.9071 132.916 62.9159C132.916 63.9353 133.27 64.7509 133.967 65.384C134.665 66.0172 135.598 66.3284 136.768 66.3284C137.584 66.3284 138.303 66.1674 138.914 65.8347C139.526 65.5021 140.009 65.1372 140.363 64.7402L141.329 67.4015Z" fill="#EA0029"/>
<path d="M153.659 59.8579H149.689V69.3549H146.523V59.8579H142.542V56.4883H153.659V59.8579Z" fill="#EA0029"/>
<path d="M155.559 58.4098C155.795 58.0449 156.085 57.723 156.45 57.4332C156.804 57.1542 157.201 56.9181 157.641 56.725C158.07 56.5318 158.531 56.3923 159.025 56.285C159.519 56.1884 160.012 56.1348 160.506 56.1348C161.354 56.1348 162.126 56.2528 162.813 56.4782C163.5 56.7142 164.101 57.0469 164.594 57.4762C165.088 57.9054 165.485 58.442 165.753 59.0858C166.032 59.7297 166.161 60.4594 166.161 61.275V69.3448H163.092V68.218C162.77 68.7009 162.287 69.0658 161.622 69.3126C160.957 69.5594 160.27 69.6882 159.572 69.6882C158.885 69.6882 158.263 69.5916 157.694 69.3877C157.126 69.1838 156.632 68.9048 156.213 68.5507C155.784 68.1966 155.462 67.7566 155.226 67.2308C154.99 66.7049 154.872 66.1147 154.872 65.4708C154.872 64.7841 155.012 64.1831 155.28 63.6573C155.559 63.1315 155.924 62.6915 156.396 62.3374C156.857 61.9832 157.394 61.7042 158.006 61.5218C158.617 61.3394 159.24 61.2428 159.894 61.2428C160.731 61.2428 161.407 61.3394 161.933 61.5325C162.459 61.7257 162.813 61.9296 162.996 62.1442V61.8115C162.996 61.0604 162.749 60.4594 162.255 60.0087C161.761 59.558 161.042 59.3326 160.098 59.3326C159.283 59.3326 158.542 59.4936 157.888 59.8048C157.233 60.116 156.707 60.5238 156.321 61.0067L155.559 58.4098ZM163.006 64.7304C162.877 64.4943 162.577 64.2904 162.137 64.1187C161.686 63.947 161.171 63.8612 160.592 63.8612C159.755 63.8612 159.132 63.99 158.725 64.2582C158.306 64.5265 158.102 64.8699 158.102 65.3099C158.102 65.7391 158.317 66.0933 158.735 66.3508C159.165 66.6083 159.776 66.7371 160.57 66.7371C161.15 66.7371 161.665 66.6298 162.116 66.4259C162.566 66.222 162.867 65.9645 163.017 65.664V64.7304H163.006Z" fill="#EA0029"/>
<path d="M172.47 56.4883V61.0597H178.115V56.4883H181.281V69.3549H178.115V64.4293H172.47V69.3549H169.294V56.4883H172.47Z" fill="#EA0029"/>
<path d="M197.238 62.9373C197.238 63.9246 197.056 64.826 196.691 65.6416C196.326 66.4679 195.832 67.1761 195.21 67.7771C194.587 68.378 193.868 68.8502 193.053 69.1829C192.237 69.5263 191.368 69.6979 190.456 69.6979C189.544 69.6979 188.675 69.5263 187.859 69.1829C187.043 68.8395 186.324 68.3673 185.702 67.7771C185.08 67.1761 184.586 66.4679 184.21 65.6416C183.846 64.8153 183.663 63.9139 183.663 62.9373C183.663 61.9715 183.846 61.0701 184.21 60.2438C184.575 59.4068 185.069 58.6878 185.702 58.0869C186.324 57.4752 187.043 57.003 187.859 56.6596C188.675 56.3162 189.544 56.1445 190.456 56.1445C191.368 56.1445 192.237 56.3162 193.053 56.6596C193.868 57.003 194.587 57.4752 195.21 58.0869C195.832 58.6985 196.326 59.4175 196.691 60.2438C197.056 61.0701 197.238 61.9715 197.238 62.9373ZM187.129 61.5423C186.947 61.9715 186.85 62.433 186.85 62.9266C186.85 63.431 186.936 63.8817 187.129 64.3002C187.312 64.7187 187.569 65.0728 187.891 65.3733C188.213 65.6738 188.599 65.9099 189.039 66.0708C189.479 66.2318 189.952 66.3176 190.445 66.3176C190.95 66.3176 191.411 66.2318 191.84 66.0708C192.269 65.8991 192.656 65.6738 192.978 65.3733C193.3 65.0728 193.557 64.7187 193.75 64.3002C193.944 63.8817 194.04 63.431 194.04 62.9266C194.04 62.433 193.944 61.9608 193.75 61.5423C193.557 61.113 193.3 60.7589 192.978 60.4584C192.656 60.158 192.269 59.9219 191.84 59.7609C191.411 59.6 190.939 59.5141 190.445 59.5141C189.952 59.5141 189.479 59.6 189.039 59.7609C188.599 59.9219 188.213 60.158 187.891 60.4584C187.569 60.7589 187.312 61.1238 187.129 61.5423Z" fill="#EA0029"/>
<path d="M204.556 56.4883C205.211 56.4883 205.812 56.5634 206.381 56.7136C206.949 56.8639 207.432 57.0892 207.851 57.4004C208.269 57.7116 208.591 58.0872 208.838 58.5487C209.085 59.0101 209.203 59.5467 209.203 60.1583C209.203 60.6949 209.128 61.1241 208.967 61.4675C208.806 61.8109 208.57 62.1329 208.259 62.4333C208.742 62.7445 209.139 63.1416 209.45 63.6245C209.761 64.0967 209.911 64.6976 209.911 65.438C209.911 66.0712 209.782 66.6292 209.525 67.1121C209.267 67.595 208.924 68.0028 208.484 68.3355C208.055 68.6681 207.55 68.9257 206.971 69.0974C206.391 69.2691 205.791 69.3549 205.157 69.3549H199.609V56.4883H204.556ZM202.657 59.4393V61.6178H204.9C205.286 61.6178 205.587 61.5104 205.801 61.2958C206.016 61.0812 206.123 60.8344 206.123 60.5446C206.123 60.2442 206.016 59.9866 205.801 59.772C205.587 59.5574 205.275 59.4501 204.878 59.4501H202.657V59.4393ZM202.657 64.1825V66.4038H205.576C205.941 66.4038 206.23 66.2965 206.456 66.0926C206.67 65.8888 206.778 65.6097 206.778 65.2771C206.778 64.9981 206.67 64.7405 206.456 64.5152C206.241 64.2898 205.941 64.1825 205.554 64.1825H202.657Z" fill="#EA0029"/>
<path d="M221.565 56.4883V69.3549H218.389V65.5346H217.337L214.74 69.3549H211.07L213.989 65.0625C213.238 64.6761 212.659 64.1503 212.24 63.485C211.821 62.8196 211.618 62.0148 211.618 61.0597C211.618 60.3408 211.746 59.7076 211.993 59.1389C212.24 58.5701 212.583 58.098 213.013 57.7009C213.442 57.3146 213.957 57.0141 214.558 56.7995C215.159 56.5956 215.803 56.4883 216.479 56.4883H221.565ZM216.253 59.6862C215.781 59.6862 215.416 59.8257 215.159 60.0939C214.891 60.373 214.762 60.6949 214.762 61.0812C214.762 61.4783 214.901 61.8002 215.191 62.047C215.47 62.2938 215.835 62.4119 216.264 62.4119H218.41V59.6862H216.253Z" fill="#EA0029"/>
<path d="M234.754 59.8579H230.784V69.3549H227.618V59.8579H223.637V56.4883H234.754V59.8579Z" fill="#EA0029"/>
<path d="M247.513 67.4015C247.127 68.0346 246.505 68.5712 245.635 69.0219C244.766 69.4726 243.758 69.6979 242.609 69.6979C241.708 69.6979 240.86 69.5263 240.045 69.1936C239.24 68.8609 238.521 68.3995 237.898 67.7985C237.276 67.1976 236.782 66.4786 236.407 65.6523C236.042 64.826 235.859 63.9031 235.859 62.9051C235.859 61.9071 236.042 60.9843 236.407 60.158C236.772 59.3209 237.265 58.6127 237.898 58.0117C238.531 57.4108 239.24 56.9494 240.045 56.6274C240.849 56.3055 241.708 56.1445 242.609 56.1445C243.758 56.1445 244.755 56.3699 245.593 56.8206C246.43 57.2713 247.041 57.8079 247.406 58.4195L246.505 61.0701C246.172 60.6731 245.7 60.3082 245.077 59.997C244.466 59.6858 243.757 59.5248 242.953 59.5248C241.783 59.5248 240.86 59.836 240.152 60.4584C239.454 61.0809 239.1 61.9071 239.1 62.9159C239.1 63.9353 239.454 64.7509 240.152 65.384C240.849 66.0172 241.783 66.3284 242.953 66.3284C243.768 66.3284 244.487 66.1674 245.099 65.8347C245.711 65.5021 246.193 65.1372 246.548 64.7402L247.513 67.4015Z" fill="#EA0029"/>
<path d="M259.232 56.4883V69.3549H256.056V65.5346H255.004L252.407 69.3549H248.737L251.656 65.0625C250.905 64.6761 250.326 64.1503 249.907 63.485C249.488 62.8196 249.285 62.0148 249.285 61.0597C249.285 60.3408 249.413 59.7076 249.66 59.1389C249.907 58.5701 250.25 58.098 250.68 57.7009C251.109 57.3146 251.635 57.0141 252.225 56.7995C252.826 56.5956 253.47 56.4883 254.146 56.4883H259.232ZM253.91 59.6862C253.438 59.6862 253.073 59.8257 252.815 60.0939C252.547 60.373 252.418 60.6949 252.418 61.0812C252.418 61.4783 252.558 61.8002 252.847 62.047C253.126 62.2938 253.491 62.4119 253.92 62.4119H256.067V59.6862H253.91Z" fill="#EA0029"/>
<path d="M8.40251 56.499L13.7251 69.3656L9.90486 69.3549L6.87869 61.8109L3.86324 69.3549H0.0322266L5.3656 56.4883L8.40251 56.499Z" fill="#EA0029"/>
</svg>
