<svg width="160" height="24" viewBox="0 0 160 24" fill="none" xmlns="http://www.w3.org/2000/svg">
<path fill-rule="evenodd" clip-rule="evenodd" d="M0 0.34082H25.6951V6.12557H0V0.34082Z" fill="#2195AE"/>
<path fill-rule="evenodd" clip-rule="evenodd" d="M0 8.90576H25.6951V14.6905H0V8.90576Z" fill="#006593"/>
<path fill-rule="evenodd" clip-rule="evenodd" d="M0 17.7847H25.6951V23.5694H0V17.7847Z" fill="#224C84"/>
<path fill-rule="evenodd" clip-rule="evenodd" d="M32.1525 0.34082H40.583V8.90585H42.6457V6.70854C42.6457 3.21078 45.4709 0.34082 48.9686 0.34082H63.722C67.2197 0.34082 70.0897 3.21078 70.0897 6.70854V17.2018C70.0897 20.6996 67.2197 23.5695 63.722 23.5695H48.9686C45.4709 23.5695 42.6457 20.6996 42.6457 17.2018V17.0673H51.0314H61.6592V6.84306H51.0314V14.6906H42.6457H40.583V23.5695H32.1525V0.34082Z" fill="#224C84"/>
<path fill-rule="evenodd" clip-rule="evenodd" d="M74.3049 0.34082H94.1704C97.3543 0.34082 99.9552 2.94172 99.9552 6.12557H74.3049V0.34082Z" fill="#224C84"/>
<path fill-rule="evenodd" clip-rule="evenodd" d="M81.1211 8.90576H99.9552C99.9552 10.2959 98.3408 12.2241 97.1749 12.2241C98.7892 12.2241 99.9552 14.1972 99.9552 16.0358V17.7847C99.9552 20.9685 97.3543 23.5694 94.1704 23.5694H74.3049V17.7847H91.5247V14.6905H81.1211V8.90576Z" fill="#224C84"/>
<path fill-rule="evenodd" clip-rule="evenodd" d="M109.776 0.34082H127.175V7.29149H112.466V23.704H103.991V6.12557C103.991 2.94172 106.592 0.34082 109.776 0.34082Z" fill="#224C84"/>
<path fill-rule="evenodd" clip-rule="evenodd" d="M139.372 8.63678H149.507V15.0493H139.372H137.175C133.677 15.0493 130.807 12.2242 130.807 8.72647V0.34082H139.372V8.63678Z" fill="#224C84"/>
<path fill-rule="evenodd" clip-rule="evenodd" d="M130.807 17.0225H151.525V0.385742H160V17.0225V17.2019C160 20.6996 157.175 23.5696 153.677 23.5696H130.807V17.0225Z" fill="#224C84"/>
</svg>
